<?xml version="1.0" encoding="UTF-8"?> <svg xmlns="http://www.w3.org/2000/svg" width="117" height="20" viewBox="0 0 117 20" fill="none"><g clip-path="url(#clip0_9065_1406)"><path d="M2.90039 2.9C4.80039 1.1 7.30039 0 10.0004 0C12.7004 0 15.2004 1.1 17.1004 2.9L13.6004 6.4C12.6004 5.5 11.3004 5 10.0004 5C8.70039 5 7.40039 5.5 6.50039 6.5L2.90039 2.9Z" fill="#E30040"></path><path d="M13.8 19.2C15 18.7 16.1 18 17 17L20 20V10H10L13.5 13.5C13 14 12.5 14.3 11.9 14.6C11.3 14.9 10.7 15 10 15C9.3 15 8.7 14.9 8.1 14.6C7.5 14.3 6.9 14 6.5 13.5C6 13 5.7 12.5 5.4 11.9C5.1 11.3 5 10.7 5 10H0C0 11.3 0.3 12.6 0.8 13.8C1.3 15 2 16.1 2.9 17.1C3.8 18 4.9 18.8 6.1 19.3C7.4 19.7 8.7 20 10 20C11.3 20 12.6 19.7 13.8 19.2Z" fill="#E30040"></path><path d="M30.9 14.0008C29.6 14.0008 28.7 13.6008 28 12.9008C27.3 12.2008 27 11.1008 27 9.60078C27 8.60078 27.2 7.80078 27.5 7.20078C27.8 6.60078 28.3 6.10078 28.9 5.80078C29.5 5.50078 30.3 5.30078 31.1 5.30078C31.6 5.30078 32.1 5.40078 32.6 5.50078C33.1 5.60078 33.5 5.80078 33.8 6.10078C34.2 6.40078 34.4 6.70078 34.6 7.10078C34.8 7.50078 34.9 7.90078 34.9 8.40078H33.1C33.1 8.10078 33 7.90078 32.9 7.70078C32.8 7.50078 32.7 7.30078 32.5 7.20078C32.3 7.10078 32.1 7.00078 31.9 6.90078C31.7 6.80078 31.4 6.80078 31.1 6.80078C30.7 6.80078 30.3 6.90078 30 7.00078C29.7 7.10078 29.4 7.30078 29.2 7.50078C29.2 7.70078 29 8.00078 28.9 8.30078C28.8 8.60078 28.7 9.00078 28.7 9.50078V9.90078C28.7 10.5008 28.8 11.0008 29 11.4008C29.2 11.8008 29.4 12.1008 29.8 12.3008C30.1 12.5008 30.6 12.6008 31.1 12.6008C31.5 12.6008 31.9 12.5008 32.2 12.4008C32.5 12.3008 32.8 12.1008 33 11.8008C33.2 11.5008 33.3 11.2008 33.3 10.9008V10.8008H30.9V9.30078H35V13.8008H33.9L33.7 12.9008C33.5 13.1008 33.2 13.3008 32.9 13.5008C32.6 13.7008 32.3 13.8008 32 13.8008C31.7 13.9008 31.3 14.0008 30.9 14.0008Z" fill="white"></path><path d="M39.2996 13.9992C38.5996 13.9992 38.0996 13.8992 37.5996 13.5992C37.0996 13.3992 36.7996 12.9992 36.4996 12.4992C36.2996 11.9992 36.0996 11.3992 36.0996 10.5992C36.0996 9.79922 36.1996 9.19922 36.4996 8.69922C36.6996 8.19922 37.0996 7.79922 37.5996 7.59922C38.0996 7.39922 38.5996 7.19922 39.2996 7.19922C39.9996 7.19922 40.5996 7.29922 40.9996 7.59922C41.4996 7.79922 41.7996 8.19922 42.0996 8.69922C42.2996 9.19922 42.4996 9.79922 42.4996 10.5992C42.4996 11.3992 42.3996 11.9992 42.0996 12.4992C41.8996 12.9992 41.4996 13.3992 40.9996 13.5992C40.4996 13.8992 39.9996 13.9992 39.2996 13.9992ZM39.2996 12.6992C39.6996 12.6992 39.8996 12.5992 40.0996 12.4992C40.2996 12.3992 40.4996 12.0992 40.5996 11.8992C40.6996 11.5992 40.7996 11.2992 40.7996 10.8992V10.5992C40.7996 10.1992 40.6996 9.79922 40.5996 9.59922C40.4996 9.29922 40.2996 9.09922 40.0996 8.99922C39.8996 8.89922 39.5996 8.79922 39.2996 8.79922C38.9996 8.79922 38.6996 8.89922 38.4996 8.99922C38.2996 9.09922 38.0996 9.29922 37.9996 9.59922C37.8996 9.89922 37.7996 10.1992 37.7996 10.5992V10.8992C37.7996 11.2992 37.8996 11.6992 37.9996 11.8992C38.0996 12.1992 38.2996 12.3992 38.4996 12.4992C38.5996 12.5992 38.8996 12.6992 39.2996 12.6992Z" fill="white"></path><path d="M43.5996 13.8V5H45.1996V13.8H43.5996Z" fill="white"></path><path d="M48.8004 14C48.3004 14 47.9004 13.9 47.5004 13.6C47.1004 13.4 46.9004 13 46.7004 12.5C46.5004 12 46.4004 11.4 46.4004 10.6C46.4004 9.8 46.5004 9.2 46.7004 8.7C46.9004 8.2 47.2004 7.8 47.5004 7.6C47.9004 7.4 48.3004 7.2 48.8004 7.2C49.1004 7.2 49.3004 7.2 49.5004 7.3C49.7004 7.4 49.9004 7.5 50.1004 7.6C50.3004 7.7 50.4004 7.9 50.6004 8.1H50.7004V5H52.3004V13.8H51.0004L50.8004 13H50.7004C50.5004 13.3 50.2004 13.6 49.9004 13.8C49.6004 13.9 49.2004 14 48.8004 14ZM49.4004 12.6C49.7004 12.6 49.9004 12.5 50.1004 12.4C50.3004 12.3 50.4004 12 50.5004 11.8C50.6004 11.5 50.6004 11.2 50.6004 10.8V10.6C50.6004 10.3 50.6004 10.1 50.5004 9.8C50.5004 9.6 50.4004 9.4 50.3004 9.2C50.2004 9 50.1004 8.9 49.9004 8.8C49.7004 8.7 49.5004 8.7 49.3004 8.7C49.0004 8.7 48.7004 8.8 48.5004 8.9C48.3004 9 48.2004 9.2 48.1004 9.5C48.0004 9.8 48.0004 10.1 48.0004 10.5V10.8C48.0004 11.2 48.0004 11.5 48.1004 11.8C48.2004 12.1 48.3004 12.3 48.5004 12.4C48.8004 12.5 49.0004 12.6 49.4004 12.6Z" fill="white"></path><path d="M59.3008 14.0004C58.8008 14.0004 58.4008 14.0004 58.0008 13.9004C57.6008 13.8004 57.2008 13.6004 56.9008 13.4004C56.6008 13.2004 56.3008 12.9004 56.1008 12.6004C55.9008 12.3004 55.8008 11.9004 55.8008 11.4004V11.3004V11.2004H57.5008V11.3004V11.4004C57.5008 11.7004 57.6008 11.9004 57.7008 12.1004C57.8008 12.3004 58.0008 12.4004 58.3008 12.5004C58.6008 12.6004 58.9008 12.6004 59.2008 12.6004C59.4008 12.6004 59.6008 12.6004 59.8008 12.6004C60.0008 12.6004 60.1008 12.5004 60.3008 12.5004C60.4008 12.4004 60.6008 12.4004 60.6008 12.3004C60.7008 12.2004 60.8008 12.1004 60.8008 12.0004C60.8008 11.9004 60.9008 11.8004 60.9008 11.7004C60.9008 11.5004 60.8008 11.3004 60.7008 11.2004C60.6008 11.1004 60.4008 10.9004 60.1008 10.8004C59.9008 10.7004 59.6008 10.6004 59.3008 10.5004C59.0008 10.4004 58.7008 10.3004 58.4008 10.3004C58.1008 10.2004 57.8008 10.1004 57.5008 10.0004C57.2008 9.90039 56.9008 9.70039 56.7008 9.50039C56.5008 9.30039 56.3008 9.00039 56.2008 8.70039C56.1008 8.40039 56.0008 8.10039 56.0008 7.70039C56.0008 7.30039 56.1008 6.90039 56.2008 6.60039C56.4008 6.30039 56.6008 6.10039 56.9008 5.90039C57.2008 5.70039 57.6008 5.60039 57.9008 5.50039C58.3008 5.40039 58.7008 5.40039 59.2008 5.40039C59.6008 5.40039 60.0008 5.40039 60.4008 5.50039C60.8008 5.60039 61.1008 5.70039 61.4008 5.90039C61.7008 6.10039 61.9008 6.40039 62.1008 6.70039C62.3008 7.00039 62.4008 7.40039 62.4008 7.80039V7.90039H60.7008V7.80039C60.7008 7.60039 60.6008 7.40039 60.5008 7.20039C60.4008 7.00039 60.2008 6.90039 60.0008 6.80039C59.8008 6.70039 59.5008 6.70039 59.2008 6.70039C58.9008 6.70039 58.6008 6.70039 58.4008 6.80039C58.2008 6.90039 58.0008 7.00039 57.9008 7.10039C57.8008 7.20039 57.7008 7.40039 57.7008 7.50039C57.7008 7.70039 57.8008 7.90039 57.9008 8.00039C58.0008 8.10039 58.2008 8.20039 58.5008 8.30039C58.7008 8.40039 59.0008 8.50039 59.3008 8.50039C59.6008 8.60039 59.9008 8.70039 60.2008 8.70039C60.5008 8.70039 60.8008 8.90039 61.1008 9.00039C61.4008 9.10039 61.7008 9.30039 61.9008 9.50039C62.1008 9.70039 62.3008 9.90039 62.5008 10.2004C62.6008 10.5004 62.7008 10.8004 62.7008 11.2004C62.7008 11.8004 62.6008 12.4004 62.3008 12.8004C62.0008 13.2004 61.6008 13.5004 61.1008 13.7004C60.5008 13.9004 59.9008 14.0004 59.3008 14.0004Z" fill="white"></path><path d="M65.7008 13.9996C65.3008 13.9996 65.0008 13.8996 64.8008 13.7996C64.6008 13.6996 64.4008 13.4996 64.3008 13.1996C64.2008 12.8996 64.1008 12.6996 64.1008 12.3996V8.69961H63.3008V7.39961H64.1008L64.4008 5.59961H65.7008V7.39961H66.8008V8.69961H65.7008V11.9996C65.7008 12.1996 65.7008 12.2996 65.8008 12.4996C65.9008 12.5996 66.0008 12.5996 66.2008 12.5996H66.8008V13.6996C66.7008 13.6996 66.6008 13.7996 66.5008 13.7996C66.4008 13.7996 66.2008 13.8996 66.1008 13.8996C66.0008 13.9996 65.8008 13.9996 65.7008 13.9996Z" fill="white"></path><path d="M70.6992 13.9992C69.9992 13.9992 69.4992 13.8992 68.9992 13.5992C68.4992 13.3992 68.1992 12.9992 67.9992 12.4992C67.7992 11.9992 67.6992 11.3992 67.6992 10.5992C67.6992 9.79922 67.7992 9.19922 67.9992 8.69922C68.1992 8.19922 68.5992 7.79922 68.9992 7.59922C69.4992 7.39922 69.9992 7.19922 70.6992 7.19922C71.2992 7.19922 71.7992 7.29922 72.2992 7.59922C72.6992 7.79922 72.9992 8.19922 73.2992 8.69922C73.4992 9.19922 73.5992 9.79922 73.5992 10.5992V10.9992H69.2992C69.2992 11.3992 69.3992 11.6992 69.4992 11.9992C69.5992 12.2992 69.7992 12.4992 69.9992 12.5992C70.1992 12.6992 70.4992 12.7992 70.7992 12.7992C70.9992 12.7992 71.1992 12.7992 71.2992 12.6992C71.4992 12.6992 71.5992 12.5992 71.6992 12.4992C71.7992 12.3992 71.8992 12.2992 71.9992 12.0992C72.0992 11.9992 72.0992 11.7992 72.0992 11.5992H73.6992C73.6992 11.9992 73.5992 12.3992 73.4992 12.6992C73.3992 12.9992 73.1992 13.2992 72.8992 13.4992C72.6992 13.6992 72.3992 13.7992 71.9992 13.9992C71.4992 13.8992 71.0992 13.9992 70.6992 13.9992ZM69.1992 9.89922H71.7992C71.7992 9.69922 71.7992 9.39922 71.6992 9.29922C71.5992 9.09922 71.5992 8.99922 71.4992 8.89922C71.3992 8.79922 71.2992 8.69922 71.0992 8.69922C70.9992 8.59922 70.7992 8.59922 70.5992 8.59922C70.2992 8.59922 70.0992 8.69922 69.8992 8.79922C69.6992 8.89922 69.5992 9.09922 69.3992 9.29922C69.2992 9.29922 69.2992 9.59922 69.1992 9.89922Z" fill="white"></path><path d="M74.6992 16.0008V7.40078H75.9992L76.0992 8.30078H76.1992C76.3992 8.00078 76.6992 7.70078 76.9992 7.50078C77.2992 7.30078 77.6992 7.30078 78.0992 7.30078C78.5992 7.30078 78.9992 7.40078 79.3992 7.70078C79.7992 7.90078 80.0992 8.30078 80.1992 8.80078C80.3992 9.30078 80.4992 9.90078 80.4992 10.7008C80.4992 11.5008 80.3992 12.1008 80.1992 12.6008C79.9992 13.1008 79.6992 13.5008 79.3992 13.7008C78.9992 13.9008 78.5992 14.0008 78.0992 14.0008C77.7992 14.0008 77.5992 14.0008 77.3992 13.9008C77.1992 13.8008 76.9992 13.7008 76.7992 13.6008C76.5992 13.5008 76.4992 13.3008 76.2992 13.1008H76.1992V16.0008H74.6992ZM77.5992 12.6008C77.8992 12.6008 78.1992 12.5008 78.3992 12.4008C78.5992 12.3008 78.6992 12.1008 78.7992 11.8008C78.8992 11.5008 78.8992 11.2008 78.8992 10.8008V10.5008C78.8992 10.1008 78.8992 9.80078 78.7992 9.50078C78.6992 9.20078 78.5992 9.00078 78.3992 8.90078C78.1992 8.80078 77.9992 8.70078 77.5992 8.70078C77.2992 8.70078 77.0992 8.80078 76.8992 8.90078C76.6992 9.00078 76.5992 9.30078 76.4992 9.50078C76.3992 9.80078 76.3992 10.1008 76.3992 10.5008V10.7008C76.3992 11.0008 76.3992 11.2008 76.4992 11.5008C76.5992 11.7008 76.5992 11.9008 76.6992 12.1008C76.7992 12.3008 76.8992 12.4008 77.0992 12.5008C77.0992 12.5008 77.2992 12.6008 77.5992 12.6008Z" fill="white"></path><path d="M84.0996 13.8V5.5H85.7996V13.9H84.0996V13.8Z" fill="white"></path><path d="M87.5 13.8008V7.40078H88.8L89 8.30078C89.1 8.10078 89.3 7.90078 89.5 7.80078C89.7 7.60078 89.9 7.50078 90.2 7.40078C90.4 7.30078 90.7 7.30078 91 7.30078C91.4 7.30078 91.8 7.40078 92.1 7.50078C92.4 7.70078 92.6 7.90078 92.8 8.20078C93 8.60078 93 9.00078 93 9.50078V13.8008H91.4V9.80078C91.4 9.60078 91.4 9.40078 91.3 9.30078C91.3 9.20078 91.2 9.00078 91.1 8.90078C91 8.80078 90.9 8.70078 90.8 8.70078C90.7 8.70078 90.5 8.60078 90.4 8.60078C90.2 8.60078 89.9 8.70078 89.7 8.80078C89.5 8.90078 89.4 9.10078 89.2 9.30078C89.1 9.50078 89 9.80078 89 10.0008V13.7008H87.5V13.8008Z" fill="white"></path><path d="M96.1008 13.8004L93.8008 7.40039H95.5008L96.4008 10.1004C96.4008 10.2004 96.5008 10.4004 96.6008 10.6004C96.7008 10.8004 96.7008 11.1004 96.8008 11.3004C96.9008 11.6004 96.9008 11.8004 97.0008 12.0004C97.1008 11.8004 97.1008 11.6004 97.2008 11.4004C97.3008 11.1004 97.3008 10.9004 97.4008 10.7004C97.5008 10.5004 97.5008 10.3004 97.6008 10.1004L98.5008 7.40039H100.101L97.8008 13.8004H96.1008Z" fill="white"></path><path d="M103.6 13.9992C102.9 13.9992 102.4 13.8992 101.9 13.5992C101.4 13.3992 101.1 12.9992 100.9 12.4992C100.7 11.9992 100.6 11.3992 100.6 10.5992C100.6 9.79922 100.7 9.19922 100.9 8.69922C101.1 8.19922 101.5 7.79922 101.9 7.59922C102.4 7.39922 102.9 7.19922 103.6 7.19922C104.2 7.19922 104.7 7.29922 105.2 7.59922C105.6 7.79922 105.9 8.19922 106.2 8.69922C106.4 9.19922 106.5 9.79922 106.5 10.5992V10.9992H102.2C102.2 11.3992 102.3 11.6992 102.4 11.9992C102.5 12.2992 102.7 12.4992 102.9 12.5992C103.1 12.6992 103.4 12.7992 103.7 12.7992C103.9 12.7992 104.1 12.7992 104.2 12.6992C104.4 12.6992 104.5 12.5992 104.6 12.4992C104.7 12.3992 104.8 12.2992 104.9 12.0992C105 11.9992 105 11.7992 105 11.5992H106.6C106.6 11.9992 106.5 12.3992 106.4 12.6992C106.3 12.9992 106.1 13.2992 105.8 13.4992C105.6 13.6992 105.3 13.7992 104.9 13.9992C104.4 13.8992 104 13.9992 103.6 13.9992ZM102.2 9.89922H104.8C104.8 9.69922 104.8 9.39922 104.7 9.29922C104.6 9.09922 104.6 8.99922 104.5 8.89922C104.4 8.79922 104.3 8.69922 104.1 8.69922C104 8.59922 103.8 8.59922 103.6 8.59922C103.3 8.59922 103.1 8.69922 102.9 8.79922C102.7 8.89922 102.6 9.09922 102.4 9.29922C102.3 9.29922 102.2 9.59922 102.2 9.89922Z" fill="white"></path><path d="M110.101 14.0008C109.701 14.0008 109.301 14.0008 109.001 13.9008C108.701 13.8008 108.401 13.7008 108.101 13.5008C107.901 13.3008 107.701 13.1008 107.501 12.9008C107.401 12.7008 107.301 12.4008 107.301 12.1008V12.0008V11.9008H108.901C108.901 12.1008 109.001 12.3008 109.101 12.4008C109.201 12.5008 109.401 12.6008 109.601 12.7008C109.801 12.8008 110.001 12.8008 110.201 12.8008C110.401 12.8008 110.601 12.8008 110.701 12.8008C110.901 12.8008 111.001 12.7008 111.101 12.6008C111.201 12.5008 111.301 12.4008 111.301 12.2008C111.301 12.0008 111.201 11.9008 111.101 11.7008C111.001 11.6008 110.801 11.5008 110.501 11.4008C110.301 11.3008 110.001 11.3008 109.701 11.2008C109.401 11.1008 109.201 11.1008 108.901 11.0008C108.601 10.9008 108.401 10.8008 108.201 10.7008C108.001 10.6008 107.801 10.4008 107.701 10.2008C107.601 10.0008 107.501 9.70078 107.501 9.30078C107.501 9.00078 107.601 8.70078 107.701 8.40078C107.801 8.10078 108.001 7.90078 108.301 7.80078C108.501 7.60078 108.801 7.50078 109.201 7.40078C109.501 7.30078 109.901 7.30078 110.301 7.30078C110.701 7.30078 111.001 7.30078 111.301 7.40078C111.601 7.50078 111.901 7.60078 112.101 7.70078C112.301 7.80078 112.501 8.00078 112.601 8.30078C112.701 8.50078 112.801 8.80078 112.801 9.00078C112.801 9.10078 112.801 9.10078 112.801 9.20078C112.801 9.30078 112.801 9.30078 112.801 9.30078H111.301V9.20078C111.301 9.10078 111.301 8.90078 111.201 8.80078C111.101 8.70078 111.001 8.60078 110.801 8.60078C110.601 8.50078 110.501 8.50078 110.201 8.50078C110.001 8.50078 109.901 8.50078 109.801 8.50078C109.701 8.50078 109.601 8.60078 109.501 8.60078C109.401 8.60078 109.301 8.70078 109.301 8.80078C109.301 8.90078 109.201 8.90078 109.201 9.00078C109.201 9.10078 109.301 9.30078 109.401 9.30078C109.501 9.40078 109.701 9.50078 109.901 9.50078C110.101 9.60078 110.301 9.60078 110.501 9.70078C110.801 9.80078 111.101 9.90078 111.401 9.90078C111.701 10.0008 112.001 10.1008 112.301 10.2008C112.601 10.3008 112.801 10.5008 112.901 10.8008C113.101 11.0008 113.101 11.4008 113.101 11.8008C113.101 12.2008 113.001 12.5008 112.901 12.8008C112.801 13.1008 112.601 13.3008 112.301 13.4008C112.001 13.6008 111.701 13.7008 111.401 13.8008C110.901 13.9008 110.501 14.0008 110.101 14.0008Z" fill="white"></path><path d="M115.9 13.9996C115.5 13.9996 115.2 13.8996 115 13.7996C114.8 13.6996 114.6 13.4996 114.5 13.1996C114.4 12.8996 114.3 12.6996 114.3 12.3996V8.69961H113.5V7.39961H114.3L114.6 5.59961H115.9V7.39961H117V8.69961H115.9V11.9996C115.9 12.1996 115.9 12.2996 116 12.4996C116.1 12.5996 116.2 12.5996 116.4 12.5996H117V13.6996C116.9 13.6996 116.8 13.7996 116.7 13.7996C116.6 13.7996 116.4 13.8996 116.3 13.8996C116.1 13.9996 116 13.9996 115.9 13.9996Z" fill="white"></path></g><defs><clipPath id="clip0_9065_1406"><rect width="117" height="20" fill="white"></rect></clipPath></defs></svg> 